<svg version="1.1" xmlns="http://www.w3.org/2000/svg" xmlns:xlink="http://www.w3.org/1999/xlink" x="0px" y="0px" width="821.1px"
	 height="109.8px" viewBox="0 0 821.1 109.8" style="enable-background:new 0 0 821.1 109.8;" xml:space="preserve">
<style type="text/css">
	.st0{fill:url(#SVGID_1_);}
	.st1{fill:url(#SVGID_2_);}
	.st2{fill:#9FC7FF;}
	.st3{fill:url(#SVGID_3_);}
	.st4{fill:url(#SVGID_4_);}
</style>
<defs>
</defs>
<path d="M0,109.8V0h40.1C48,0,55.3,1.4,61.9,4.2c6.7,2.8,12.5,6.7,17.5,11.7c5,5,8.8,10.8,11.6,17.5c2.8,6.6,4.2,13.8,4.2,21.6
	c0,7.7-1.4,14.9-4.2,21.6c-2.8,6.6-6.6,12.5-11.6,17.5c-5,5-10.8,8.9-17.5,11.7c-6.7,2.8-14,4.2-21.8,4.2H0z M18.8,93.5h21.6
	c6.7,0,12.7-1.7,18-5.1c5.3-3.4,9.5-8,12.7-13.9c3.2-5.9,4.8-12.4,4.8-19.6s-1.6-13.7-4.8-19.6c-3.2-5.9-7.4-10.5-12.7-13.9
	c-5.3-3.4-11.3-5.1-18-5.1H18.8V93.5z"/>
<path d="M115.6,109.8V0h18.7v109.8H115.6z"/>
<path d="M190.4,109.8L147.7,0H168l33.7,90.6l34-90.6h19.6l-43.1,109.8H190.4z"/>
<g>
	<linearGradient id="SVGID_1_" gradientUnits="userSpaceOnUse" x1="266.749" y1="54.8871" x2="293.7216" y2="54.8871">
		<stop  offset="0" style="stop-color:#6A78FF"/>
		<stop  offset="1" style="stop-color:#AAAAFF"/>
	</linearGradient>
	<rect x="266.7" class="st0" width="27" height="109.8"/>
	<linearGradient id="SVGID_2_" gradientUnits="userSpaceOnUse" x1="316.618" y1="54.8871" x2="415.7282" y2="54.8871">
		<stop  offset="0" style="stop-color:#6A78FF"/>
		<stop  offset="1" style="stop-color:#AAAAFF"/>
	</linearGradient>
	<polygon class="st1" points="390.3,0 390.8,66.5 342,0 316.6,0 316.6,109.8 342,109.8 341.6,41.1 391.9,109.8 415.7,109.8 415.7,0 
			"/>
</g>
<g>
	<path class="st2" d="M293.8,0h-27v29.9c8.9-2.8,17.9-4.8,27-6V0z"/>
	<path class="st2" d="M266.8,100.7v9.1h27V78.6C282.8,85.2,273.9,93,266.8,100.7z"/>
	<path class="st2" d="M316.7,109.8h25.4l-0.3-47.3c-8.5,0.9-16.9,2.8-25.1,5.6V109.8z"/>
	<path class="st2" d="M356.7,61.7l35.2,48.1h23.8V76.3C397.1,66.9,376.8,61.9,356.7,61.7z"/>
	<path class="st2" d="M415.8,0h-25.4l0.3,43.9c8.9,5.3,17.3,11.5,25.1,18.6V0z"/>
	<path class="st2" d="M342.1,0h-25.4v22.7c16.7,0.4,33.2,3.6,48.9,9.3L342.1,0z"/>
</g>
<path d="M441.1,109.8V0h40.1c7.8,0,15.1,1.4,21.8,4.2c6.7,2.8,12.5,6.7,17.5,11.7c5,5,8.8,10.8,11.6,17.5c2.8,6.6,4.2,13.8,4.2,21.6
	c0,7.7-1.4,14.9-4.2,21.6c-2.8,6.6-6.6,12.5-11.6,17.5c-5,5-10.8,8.9-17.5,11.7c-6.7,2.8-14,4.2-21.8,4.2H441.1z M460,93.5h21.6
	c6.7,0,12.7-1.7,18-5.1c5.3-3.4,9.5-8,12.7-13.9c3.2-5.9,4.8-12.4,4.8-19.6s-1.6-13.7-4.8-19.6c-3.2-5.9-7.4-10.5-12.7-13.9
	c-5.3-3.4-11.3-5.1-18-5.1H460V93.5z"/>
<path d="M540.2,109.8L583.4,0h21.8l42.7,109.8h-20.4L616.1,79h-45L560,109.8H540.2z M576.6,64.3h34.2l-17.1-46.4L576.6,64.3z"/>
<path d="M671.2,109.8V16.2h-36.7V0h92.2v16.2H690v93.6H671.2z"/>
<path d="M713.5,109.8L756.7,0h21.8l42.7,109.8h-20.4L789.4,79h-45l-11.1,30.7H713.5z M749.9,64.3h34.2L767,17.9L749.9,64.3z"/>
</svg>
