<svg width="171" height="41" viewBox="0 0 171 41" fill="none" xmlns="http://www.w3.org/2000/svg">
<path d="M21.5859 30.5319L15.6548 36.6004C15.5692 36.6879 15.4552 36.6879 15.3981 36.6004L9.46699 30.5319C9.38145 30.4444 9.38145 30.3277 9.46699 30.2694L15.3981 24.2009C15.4837 24.1134 15.5977 24.1134 15.6548 24.2009L21.5859 30.2694C21.6429 30.3277 21.6429 30.4736 21.5859 30.5319Z" fill="#9FC7FF"/>
<path d="M46.9358 26.068L42.9152 30.1817C42.8296 30.2693 42.7155 30.2693 42.6585 30.1817L38.6379 26.068C38.5523 25.9805 38.5523 25.8638 38.6379 25.8055L42.6585 21.6917C42.7441 21.6042 42.8581 21.6042 42.9152 21.6917L46.9358 25.8055C47.0213 25.8638 47.0213 25.9805 46.9358 26.068Z" fill="#9FC7FF"/>
<path d="M27.5455 36.4252L25.0932 38.9343C25.0076 39.0218 24.8936 39.0218 24.8365 38.9343L22.3842 36.4252C22.2987 36.3377 22.2987 36.221 22.3842 36.1627L24.8365 33.6536C24.9221 33.5661 25.0361 33.5661 25.0932 33.6536L27.5455 36.1627C27.6025 36.221 27.6025 36.3377 27.5455 36.4252Z" fill="#9FC7FF"/>
<path d="M31.4807 23.384C29.7983 24.2301 27.1749 23.4715 24.637 21.5459C15.7974 9.52573 3.67845 6.69573 0 5.99552C8.18383 -1.99851 20.4738 -1.99851 28.5721 5.99552C30.7108 8.09614 32.3931 10.6052 33.5908 13.3185C34.9025 18.22 33.6193 22.2753 31.4807 23.384Z" fill="url(#paint0_linear_174_112)"/>
<path d="M32.1649 38.0883C31.1954 34.0038 29.2564 27.9645 25.0077 22.0419C24.8936 21.8668 24.751 21.6918 24.637 21.5167C27.1463 23.4423 29.7982 24.2009 31.4806 23.3548C33.6192 22.2753 34.9024 18.1908 33.6192 13.2893C37.0695 21.0499 36.7274 30.5902 32.1649 38.0883Z" fill="#9FC7FF"/>
<path d="M60.308 36L62.394 26.2H69.268L69.058 27.152H63.248L62.506 30.582H66.314L66.118 31.52H62.31L61.554 35.048H67.434L67.238 36H60.308ZM71.0985 36.14C70.5292 36.14 69.9738 36.0233 69.4325 35.79C68.8912 35.5567 68.4572 35.2393 68.1305 34.838L68.8025 34.208C69.1198 34.5627 69.4745 34.8333 69.8665 35.02C70.2678 35.2067 70.6878 35.3 71.1265 35.3C71.6492 35.3 72.0785 35.1787 72.4145 34.936C72.7598 34.6933 72.9325 34.3853 72.9325 34.012C72.9325 33.7507 72.8438 33.5453 72.6665 33.396C72.4892 33.2373 72.1998 33.1113 71.7985 33.018L70.6505 32.752C70.0532 32.6213 69.6145 32.4113 69.3345 32.122C69.0545 31.8327 68.9145 31.4547 68.9145 30.988C68.9145 30.5587 69.0218 30.19 69.2365 29.882C69.4512 29.5647 69.7498 29.3173 70.1325 29.14C70.5152 28.9627 70.9632 28.874 71.4765 28.874C71.9992 28.874 72.4938 28.9673 72.9605 29.154C73.4365 29.3313 73.8798 29.6067 74.2905 29.98L73.6745 30.652C73.3292 30.344 72.9605 30.1107 72.5685 29.952C72.1858 29.784 71.8032 29.7 71.4205 29.7C70.9445 29.7 70.5618 29.812 70.2725 30.036C69.9832 30.26 69.8385 30.5493 69.8385 30.904C69.8385 31.1653 69.9225 31.3707 70.0905 31.52C70.2678 31.6693 70.5572 31.7907 70.9585 31.884L72.1065 32.15C72.7225 32.29 73.1752 32.5047 73.4645 32.794C73.7538 33.074 73.8985 33.4473 73.8985 33.914C73.8985 34.334 73.7725 34.712 73.5205 35.048C73.2778 35.384 72.9465 35.65 72.5265 35.846C72.1065 36.042 71.6305 36.14 71.0985 36.14ZM73.9752 38.856L76.0752 28.986H77.0832L76.9712 29.49C77.5778 29.0887 78.2218 28.888 78.9032 28.888C79.5005 28.888 80.0278 29.028 80.4852 29.308C80.9518 29.588 81.3205 29.9707 81.5912 30.456C81.8618 30.9413 81.9972 31.492 81.9972 32.108C81.9972 32.6587 81.8945 33.1767 81.6892 33.662C81.4932 34.1473 81.2178 34.5767 80.8632 34.95C80.5178 35.314 80.1118 35.6033 79.6452 35.818C79.1785 36.0233 78.6792 36.126 78.1472 36.126C77.6712 36.126 77.2278 36.0373 76.8172 35.86C76.4158 35.6827 76.0705 35.4307 75.7812 35.104L74.9832 38.856H73.9752ZM78.1192 35.202C78.6605 35.202 79.1458 35.0667 79.5752 34.796C80.0138 34.5253 80.3592 34.1613 80.6112 33.704C80.8725 33.2467 81.0032 32.7427 81.0032 32.192C81.0032 31.7253 80.9052 31.3147 80.7092 30.96C80.5132 30.596 80.2378 30.3113 79.8832 30.106C79.5378 29.9007 79.1412 29.798 78.6932 29.798C78.3292 29.798 77.9792 29.8633 77.6432 29.994C77.3165 30.1153 77.0225 30.2973 76.7612 30.54L76.0052 34.068C76.1918 34.4133 76.4765 34.6887 76.8592 34.894C77.2418 35.0993 77.6618 35.202 78.1192 35.202ZM85.1629 36.098C84.4443 36.098 83.8656 35.9207 83.4269 35.566C82.9883 35.2113 82.7689 34.7353 82.7689 34.138C82.7689 33.6807 82.8856 33.284 83.1189 32.948C83.3523 32.6027 83.6836 32.3367 84.1129 32.15C84.5423 31.954 85.0463 31.856 85.6249 31.856C86.0356 31.856 86.4323 31.912 86.8149 32.024C87.2069 32.1267 87.5569 32.2713 87.8649 32.458L88.0469 31.632C88.1776 30.9973 88.1029 30.5213 87.8229 30.204C87.5523 29.8867 87.0716 29.728 86.3809 29.728C86.0823 29.728 85.7649 29.7747 85.4289 29.868C85.1023 29.952 84.7196 30.0873 84.2809 30.274L84.0009 29.448C84.4863 29.2427 84.9389 29.0933 85.3589 29C85.7789 28.9067 86.1756 28.86 86.5489 28.86C87.1836 28.86 87.7063 28.9673 88.1169 29.182C88.5276 29.3967 88.8123 29.7093 88.9709 30.12C89.1389 30.5213 89.1623 31.002 89.0409 31.562L88.1029 36H87.1089L87.2349 35.426C86.9176 35.65 86.5863 35.818 86.2409 35.93C85.9049 36.042 85.5456 36.098 85.1629 36.098ZM85.4289 35.3C85.7929 35.3 86.1383 35.244 86.4649 35.132C86.8009 35.0107 87.1183 34.8287 87.4169 34.586L87.6969 33.27C87.1649 32.8313 86.4696 32.612 85.6109 32.612C85.0696 32.612 84.6216 32.7473 84.2669 33.018C83.9123 33.2887 83.7349 33.6293 83.7349 34.04C83.7349 34.432 83.8843 34.74 84.1829 34.964C84.4816 35.188 84.8969 35.3 85.4289 35.3ZM93.253 36.112C92.665 36.112 92.1376 35.972 91.671 35.692C91.2043 35.412 90.8356 35.0293 90.565 34.544C90.2943 34.0587 90.159 33.508 90.159 32.892C90.159 32.3413 90.257 31.828 90.453 31.352C90.6583 30.8667 90.9383 30.442 91.293 30.078C91.6476 29.7047 92.0583 29.4153 92.525 29.21C92.9916 28.9953 93.491 28.888 94.023 28.888C94.499 28.888 94.9376 28.9767 95.339 29.154C95.7496 29.322 96.0996 29.5693 96.389 29.896L97.173 26.2L98.223 25.962L96.095 36H95.087L95.185 35.51C94.597 35.9113 93.953 36.112 93.253 36.112ZM93.477 35.216C93.8316 35.216 94.177 35.1507 94.513 35.02C94.849 34.88 95.1476 34.6887 95.409 34.446L96.165 30.918C95.9783 30.582 95.6936 30.3113 95.311 30.106C94.9283 29.9007 94.5083 29.798 94.051 29.798C93.519 29.798 93.0336 29.9333 92.595 30.204C92.1563 30.4747 91.8063 30.8387 91.545 31.296C91.2836 31.744 91.153 32.248 91.153 32.808C91.153 33.2747 91.251 33.69 91.447 34.054C91.6523 34.418 91.9276 34.7027 92.273 34.908C92.6276 35.1133 93.029 35.216 93.477 35.216ZM101.542 36.14C100.917 36.14 100.357 35.9953 99.8624 35.706C99.377 35.4167 98.9897 35.02 98.7004 34.516C98.4204 34.0027 98.2804 33.4287 98.2804 32.794C98.2804 32.262 98.3784 31.758 98.5744 31.282C98.7704 30.806 99.041 30.386 99.3864 30.022C99.741 29.658 100.142 29.3733 100.59 29.168C101.048 28.9533 101.533 28.846 102.046 28.846C102.672 28.846 103.227 28.9907 103.712 29.28C104.207 29.5693 104.594 29.966 104.874 30.47C105.164 30.974 105.308 31.548 105.308 32.192C105.308 32.724 105.21 33.228 105.014 33.704C104.818 34.18 104.543 34.6 104.188 34.964C103.843 35.328 103.442 35.6173 102.984 35.832C102.536 36.0373 102.056 36.14 101.542 36.14ZM101.584 35.216C101.958 35.216 102.308 35.1413 102.634 34.992C102.961 34.8333 103.25 34.6187 103.502 34.348C103.754 34.068 103.95 33.7507 104.09 33.396C104.24 33.032 104.314 32.6493 104.314 32.248C104.314 31.772 104.212 31.3473 104.006 30.974C103.81 30.6007 103.535 30.3067 103.18 30.092C102.835 29.8773 102.443 29.77 102.004 29.77C101.631 29.77 101.281 29.8493 100.954 30.008C100.628 30.1573 100.338 30.372 100.086 30.652C99.8344 30.9227 99.6337 31.24 99.4844 31.604C99.3444 31.9587 99.2744 32.3367 99.2744 32.738C99.2744 33.2047 99.3724 33.6293 99.5684 34.012C99.7737 34.3853 100.049 34.6793 100.394 34.894C100.749 35.1087 101.146 35.216 101.584 35.216ZM106.009 36L107.493 28.986H108.501L108.347 29.686C108.972 29.1353 109.682 28.86 110.475 28.86C111.026 28.86 111.488 28.986 111.861 29.238C112.244 29.49 112.514 29.8353 112.673 30.274C112.832 30.7127 112.85 31.212 112.729 31.772L111.833 36H110.825L111.693 31.898C111.833 31.254 111.758 30.736 111.469 30.344C111.189 29.952 110.746 29.756 110.139 29.756C109.756 29.756 109.392 29.84 109.047 30.008C108.711 30.176 108.408 30.4187 108.137 30.736L107.017 36H106.009Z" fill="#072138"/>
<path d="M60 19V4H64.9274C66.0263 4 67.0189 4.19643 67.9406 4.57143C68.8623 4.94643 69.6421 5.48214 70.2979 6.16071C70.9537 6.83929 71.4678 7.625 71.8223 8.53571C72.1767 9.44643 72.3717 10.4286 72.3717 11.5C72.3717 12.5714 72.1945 13.5536 71.8223 14.4643C71.4678 15.375 70.9537 16.1607 70.2979 16.8393C69.6421 17.5179 68.8445 18.0536 67.9406 18.4286C67.0189 18.8036 66.0263 19 64.9274 19H60ZM61.6307 17.5179H65.0338C66.115 17.5179 67.0721 17.25 67.9229 16.7321C68.7736 16.1964 69.4472 15.4821 69.9612 14.5714C70.4575 13.6607 70.7233 12.6429 70.7233 11.5C70.7233 10.3571 70.4752 9.33929 69.9612 8.42857C69.4649 7.51786 68.7736 6.80357 67.9229 6.26786C67.0721 5.73214 66.115 5.48214 65.0338 5.48214H61.6307V17.5179Z" fill="black"/>
<path d="M75.4558 19V4H77.0865V19H75.4558Z" fill="black"/>
<path d="M84.9915 19L79.1602 4H80.8972L86.0018 17.4107L91.1242 4H92.808L86.9412 19H84.9915Z" fill="black"/>
<path d="M94.8818 19V7.75H96.5125V19H94.8818Z" fill="black"/>
<path d="M100.27 19V7.57143H101.972L110.692 16.4286L110.657 4H112.216V19H110.727L101.794 9.85714L101.83 19H100.27Z" fill="black"/>
<path d="M115.761 19V4H121.823C122.869 4 123.844 4.19643 124.748 4.57143C125.652 4.96429 126.449 5.5 127.123 6.17857C127.814 6.85714 128.346 7.66071 128.736 8.57143C129.126 9.48214 129.303 10.4464 129.303 11.5C129.303 12.5357 129.108 13.5179 128.736 14.4286C128.346 15.3393 127.814 16.125 127.123 16.8214C126.431 17.5 125.634 18.0357 124.748 18.4286C123.844 18.8214 122.869 19 121.823 19H115.761ZM119.412 15.8393H121.823C122.514 15.8393 123.135 15.6429 123.702 15.2679C124.269 14.8929 124.694 14.3571 125.031 13.6964C125.368 13.0357 125.527 12.3036 125.527 11.5C125.527 10.6786 125.368 9.94643 125.031 9.28571C124.694 8.625 124.251 8.10714 123.702 7.71429C123.152 7.32143 122.532 7.14286 121.823 7.14286H119.412V15.8393Z" fill="black"/>
<path d="M129.569 19L135.382 4H139.548L145.273 19H141.32L140.079 15.4286H134.638L133.38 19H129.569ZM135.631 12.5714H139.105L137.385 7.60714L135.631 12.5714Z" fill="black"/>
<path d="M147.984 19V7.14286H143.199V4H156.421V7.14286H151.636V19H147.984Z" fill="black"/>
<path d="M154.365 19L160.179 4H164.344L170.069 19H166.099L164.858 15.4286H159.417L158.158 19H154.365ZM160.427 12.5714H163.901L162.182 7.60714L160.427 12.5714Z" fill="black"/>
<defs>
<linearGradient id="paint0_linear_174_112" x1="15.5936" y1="7.39698" x2="39.6477" y2="32.1655" gradientUnits="userSpaceOnUse">
<stop stop-color="#6A78FF"/>
<stop offset="0.9766" stop-color="#A8A9FF"/>
<stop offset="1" stop-color="#AAAAFF"/>
</linearGradient>
</defs>
</svg>
