<svg version="1.1" xmlns="http://www.w3.org/2000/svg" xmlns:xlink="http://www.w3.org/1999/xlink" x="0px" y="0px" width="386.7px"
	 height="265.2px" viewBox="0 0 386.7 265.2" style="enable-background:new 0 0 386.7 265.2;" xml:space="preserve">
<style type="text/css">
	.st0{fill:#6155ec09;}
</style>
<defs>
</defs>
<g>
	<g>
		<path class="st0" d="M250.9,66.7c11.2-3.6,22.4-6.9,33.7-10.2c7.8-2.3,15.6-4.5,23.5-6.5c20.5-5.4,40.8-11.6,61.4-16.5
			c5.7-1.4,11.4-3,17.2-4.6c-0.4-0.9-0.8-0.9-1.3-0.8c-10.4,2.1-20.9,4-31.4,6.1c-18.8,3.8-37.6,6.9-56.3,11.3
			c-6.1,1.4-12.4,2-18.6,3.4c-6.6,1.5-13.4,2.6-20.1,3.5c-6.4,0.9-12.4,3.4-19.1,3.3c-10.3-0.1-19.8-2.8-29.4-6.1
			c-4.2-1.5-8-3.9-12.4-5c-2.2-0.5-4.8-0.3-6.6-0.9c-4.4-1.4-8.8-1.2-13.1-1.1c-3.4,0.1-5.8-1.2-7.4-3.7c-4.1-6.6-10.5-10.9-16.1-16
			c-8-7.2-17.9-11.4-27.7-15.7c-6.9-3.1-14.4-3.4-21.6-5.4c-7.3-2-15.1-1.8-22.8-1.7L54.2,41.1L31.4,67.5
			C23.9,78,16.8,88.7,11,100.3c-4.9,10-8.3,20.3-10.1,31.1c-0.4,2.6-1.5,5.5-0.6,8.5c0.6-0.4,0.9-0.5,1-0.7c1.6-6.1,5-11.4,7.3-17.2
			c1.3-3.4,3.3-6.8,5.6-9.2c2.9-3.2,5.4-6.7,8.5-9.7l9.7-9.8c4.5-4.8,9.7-8.4,15.2-11.8c3.3-2,6.7-3.9,9.6-6.4
			c2-1.7,4.3-1.4,6.2-2.6c-0.4,0.8-0.8,1.4-1.4,1.7c-9.7,6.2-18.6,13.5-26.7,21.6c-7.2,7.1-13.1,15.3-18.4,23.9
			c-3.3,5.3-6.2,10.8-8.3,16.6c-5.1,14.5-5.8,29.4-3.1,44.4c0.6,3.3,1.5,6.6,2.4,9.9c0.2,0.6,0.7,1.4,1.1,1.5
			c1.2,0.2,1.2-1.1,1.3-1.7c0.4-2.2,1.1-4.2,1.7-6.3c3.8-13.7,10.2-26.1,20.1-36.5c1.5-1.6,2.5-3.7,4.1-5.1
			c12.3-10.7,24.5-21.6,39.6-28.5c3.1-1.4,5.7-4,8.7-4.9c5.3-1.6,10.3-4.2,15.3-6.4c6.1-2.7,12.5-4.4,18.7-6.5
			c6.2-2.2,12.8-3.9,19.4-5c3.5-0.6,6.9-2,10.7-1.4c-1.4,0-1.7,1.8-2.9,1.7c-5.7-0.5-10.5,2.6-15.6,4c-10.6,2.9-21,6.6-31.2,10.8
			c-16.7,6.9-32,16-45.6,28.1c-11.5,10.4-22,21.4-28.6,35.7c-4.4,9.5-6.9,19.6-9.2,29.7c-1.2,5.2,0,8.9,3.6,12.5
			c5.2,5.3,11.1,9.5,17.5,13.2c3.5,2.1,7.1,4.2,11.5,5.6c-0.7-1.4-1.1-2.4-1.6-3.3c-5.2-10.8-8.9-21.8-8.2-34.1
			c0.6-9.8,4.4-18.5,10.7-25.5c9.7-10.8,22-18.2,35.2-24c7.3-3.2,14.5-6.7,22.4-8.6c6.9-1.6,13.6-4.1,20.6-5.2
			c7.2-1.1,14.3-2.3,22.2-3.6c-5.5,9-12.4,15.8-19.4,22.8c6.1-1.5,11.7-4.2,17.3-7c5.4-2.8,10.8-5.8,16.1-8.8
			c5.5-3.1,9.8-7.8,15.2-12.1l11.1-8.7c5.8-3.8,12.7-5,18.6-8.2c2.7-1.5,5.4-2.9,8.1-4.2c2.5-1.2,4.9-3,7.5-3.2
			c5.5-0.4,11-0.3,16.6,0.3c5.2,0.5,10.5,1.5,15.8,0.8c1.4-0.2,3.2-0.7,3.4-2c0.3-1.6-1.8-1.6-2.9-1.8c-7.1-1.8-14.2-3.6-21.6-4.6
			c-1.6-0.2-3.1-0.6-4.6-1.1c-5.1-1.9-10.2-3.3-15.6-3.8c-1.8-0.1-3.3-0.3-4.4-1.9L250.9,66.7z"/>
		<path class="st0" d="M116.6,197.9c0.7-6.3,2.6-12.5,4.8-18.2c2.3-6,6.1-11.8,10.7-16.7c0.8-0.8,2.1-1.7,1.3-3
			c-0.9-1.5-2.3-0.5-3.5-0.1c-5.9,1.7-11.1,4.9-16.1,8.3c-8.9,6-15.4,14.3-18.5,24.6c-1.6,5.3-4.1,7.3-9.4,7.7
			c-10.8,0.8-20.4-1.3-28.2-9.5c-1.6-1.7-2.7-3.4-3.5-5.5c-0.7-1.9-1.8-3.7-3-6c-1.4,15.3,1,29.3,8.6,42.2c2.4,4.1,5.9,7.3,9.4,10.4
			c3.6,3.2,7.4,5.9,12,7.5c0,0,0.1,0.1,0.1,0.1l0-0.1c-2.3-3.5-4.7-7-6.1-11c-0.7-2.1-0.7-3.1,2-3.1c4.2,0,8.5-0.1,12.6-1
			c2.8-0.6,3.4,0.4,4,2.6c4.6,15.8,14.7,27.1,29.3,34.3c3.8,1.9,7.9,3.4,12.8,3.9c-8.6-9.4-14.4-19.1-17.6-31.6
			C115.3,221.8,115.2,209.9,116.6,197.9z"/>
	</g>
</g>
</svg>
