<!-- Generator: Adobe Illustrator 23.0.1, SVG Export Plug-In  -->
<svg version="1.1" xmlns="http://www.w3.org/2000/svg" xmlns:xlink="http://www.w3.org/1999/xlink" x="0px" y="0px" width="164.8px"
	 height="133.5px" viewBox="0 0 164.8 133.5" style="enable-background:new 0 0 164.8 133.5;" xml:space="preserve">
<style type="text/css">
	.st0{fill:#9FC7FF;}
	.st1{fill:url(#SVGID_1_);}
	.st2{fill:url(#SVGID_2_);}
</style>
<defs>
</defs>
<path class="st0" d="M75.7,104.6l-20.8,20.8c-0.3,0.3-0.7,0.3-0.9,0l-20.8-20.8c-0.3-0.3-0.3-0.7,0-0.9L54,82.9
	c0.3-0.3,0.7-0.3,0.9,0l20.8,20.8C75.9,103.9,75.9,104.4,75.7,104.6z"/>
<path class="st0" d="M164.6,89.3l-14.1,14.1c-0.3,0.3-0.7,0.3-0.9,0l-14.1-14.1c-0.3-0.3-0.3-0.7,0-0.9l14.1-14.1
	c0.3-0.3,0.7-0.3,0.9,0l14.1,14.1C164.9,88.6,164.9,89,164.6,89.3z"/>
<path class="st0" d="M96.6,124.8l-8.6,8.6c-0.3,0.3-0.7,0.3-0.9,0l-8.6-8.6c-0.3-0.3-0.3-0.7,0-0.9l8.6-8.6c0.3-0.3,0.7-0.3,0.9,0
	l8.6,8.6C96.8,124.1,96.8,124.5,96.6,124.8z"/>
<g>
	<linearGradient id="SVGID_1_" gradientUnits="userSpaceOnUse" x1="54.6856" y1="25.3036" x2="137.0555" y2="112.0838">
		<stop  offset="0" style="stop-color:#6A78FF"/>
		<stop  offset="0.9766" style="stop-color:#A8A9FF"/>
		<stop  offset="1" style="stop-color:#AAAAFF"/>
	</linearGradient>
	<path class="st1" d="M110.4,80.1c-5.9,2.9-15.1,0.3-24-6.3C55.4,32.6,12.9,22.9,0,20.5c28.7-27.4,71.8-27.4,100.2,0
		c7.5,7.2,13.4,15.8,17.6,25.1C122.4,62.4,117.9,76.3,110.4,80.1z"/>
</g>
<path class="st0" d="M112.8,130.5c-3.4-14-10.2-34.7-25.1-55c-0.4-0.6-0.9-1.2-1.3-1.8c8.8,6.6,18.1,9.2,24,6.3
	c7.5-3.7,12-17.7,7.5-34.5C130,72.1,128.8,104.8,112.8,130.5z"/>
</svg>
