<!-- Generator: Adobe Illustrator 23.0.1, SVG Export Plug-In  -->
<svg version="1.1" xmlns="http://www.w3.org/2000/svg" xmlns:xlink="http://www.w3.org/1999/xlink" x="0px" y="0px" width="815.4px"
	 height="133.5px" viewBox="0 0 815.4 133.5" style="enable-background:new 0 0 815.4 133.5;" xml:space="preserve">
<style type="text/css">
	.st0{fill:#9FC7FF;}
	.st1{fill:url(#SVGID_1_);}
	.st2{fill:url(#SVGID_2_);}
</style>
<defs>
</defs>
<g>
	<path d="M194.4,122.3v-84h27.8c6.2,0,11.8,1.1,17,3.2c5.2,2.1,9.6,5.1,13.3,8.9c3.7,3.8,6.6,8.2,8.6,13.3c2,5.1,3.1,10.6,3.1,16.6
		s-1,11.5-3.1,16.6c-2,5.1-4.9,9.5-8.6,13.3c-3.7,3.8-8.2,6.8-13.3,8.9c-5.2,2.1-10.8,3.2-17,3.2H194.4z M203.6,114h19.2
		c6.1,0,11.5-1.5,16.3-4.4c4.8-3,8.6-7,11.5-12.1c2.8-5.1,4.3-10.8,4.3-17.2c0-6.4-1.4-12.1-4.3-17.2c-2.8-5.1-6.7-9.1-11.5-12.1
		c-4.8-3-10.2-4.4-16.3-4.4h-19.2V114z"/>
	<path d="M281.6,122.3v-84h9.2v84H281.6z"/>
	<path d="M335.4,122.3l-32.9-84h9.8l28.8,75.1L370,38.3h9.5l-33.1,84H335.4z"/>
	<path d="M391.2,122.3v-63h9.2v63H391.2z"/>
	<path d="M421.6,122.3v-64h9.6l49.2,49.6l-0.2-69.6h8.8v84h-8.4l-50.4-51.2l0.2,51.2H421.6z"/>
	<path d="M509,122.3v-84h34.2c5.9,0,11.4,1.1,16.5,3.2c5.1,2.2,9.6,5.2,13.4,9c3.9,3.8,6.9,8.3,9.1,13.4c2.2,5.1,3.2,10.5,3.2,16.4
		c0,5.8-1.1,11.3-3.2,16.4c-2.2,5.1-5.2,9.5-9.1,13.4c-3.9,3.8-8.4,6.8-13.4,9c-5.1,2.2-10.6,3.2-16.5,3.2H509z M529.6,104.6h13.6
		c3.9,0,7.4-1.1,10.6-3.2s5.6-5.1,7.5-8.8c1.9-3.7,2.8-7.8,2.8-12.3c0-4.6-0.9-8.7-2.8-12.4c-1.9-3.7-4.4-6.6-7.5-8.8
		s-6.6-3.2-10.6-3.2h-13.6V104.6z"/>
	<path d="M586.9,122.3l32.8-84h23.5l32.3,84h-22.3l-7-20h-30.7l-7.1,20H586.9z M621.1,86.3h19.6l-9.7-27.8L621.1,86.3z"/>
	<path d="M690.8,122.3V55.9h-27V38.3h74.6v17.6h-27v66.4H690.8z"/>
	<path d="M726.8,122.3l32.8-84h23.5l32.3,84H793l-7-20h-30.7l-7.1,20H726.8z M761,86.3h19.6l-9.7-27.8L761,86.3z"/>
</g>
<path class="st0" d="M75.7,104.6l-20.8,20.8c-0.3,0.3-0.7,0.3-0.9,0l-20.8-20.8c-0.3-0.3-0.3-0.7,0-0.9L54,82.9
	c0.3-0.3,0.7-0.3,0.9,0l20.8,20.8C75.9,103.9,75.9,104.4,75.7,104.6z"/>
<path class="st0" d="M164.6,89.3l-14.1,14.1c-0.3,0.3-0.7,0.3-0.9,0l-14.1-14.1c-0.3-0.3-0.3-0.7,0-0.9l14.1-14.1
	c0.3-0.3,0.7-0.3,0.9,0l14.1,14.1C164.9,88.6,164.9,89,164.6,89.3z"/>
<path class="st0" d="M96.6,124.8l-8.6,8.6c-0.3,0.3-0.7,0.3-0.9,0l-8.6-8.6c-0.3-0.3-0.3-0.7,0-0.9l8.6-8.6c0.3-0.3,0.7-0.3,0.9,0
	l8.6,8.6C96.8,124.1,96.8,124.5,96.6,124.8z"/>
<g>
	<linearGradient id="SVGID_1_" gradientUnits="userSpaceOnUse" x1="54.6856" y1="25.3036" x2="137.0555" y2="112.0838">
		<stop  offset="0" style="stop-color:#6A78FF"/>
		<stop  offset="0.9766" style="stop-color:#A8A9FF"/>
		<stop  offset="1" style="stop-color:#AAAAFF"/>
	</linearGradient>
	<path class="st1" d="M110.4,80.1c-5.9,2.9-15.1,0.3-24-6.3C55.4,32.6,12.9,22.9,0,20.5c28.7-27.4,71.8-27.4,100.2,0
		c7.5,7.2,13.4,15.8,17.6,25.1C122.4,62.4,117.9,76.3,110.4,80.1z"/>
</g>
<path class="st0" d="M112.8,130.5c-3.4-14-10.2-34.7-25.1-55c-0.4-0.6-0.9-1.2-1.3-1.8c8.8,6.6,18.1,9.2,24,6.3
	c7.5-3.7,12-17.7,7.5-34.5C130,72.1,128.8,104.8,112.8,130.5z"/>
</svg>
