<svg width="171" height="41" viewBox="0 0 171 41" fill="none" xmlns="http://www.w3.org/2000/svg">
<path d="M21.5859 30.5319L15.6548 36.6004C15.5692 36.6879 15.4552 36.6879 15.3981 36.6004L9.46699 30.5319C9.38145 30.4444 9.38145 30.3277 9.46699 30.2694L15.3981 24.2009C15.4837 24.1134 15.5977 24.1134 15.6548 24.2009L21.5859 30.2694C21.6429 30.3277 21.6429 30.4736 21.5859 30.5319Z" fill="#9FC7FF"/>
<path d="M46.9358 26.068L42.9152 30.1817C42.8296 30.2693 42.7155 30.2693 42.6585 30.1817L38.6379 26.068C38.5523 25.9805 38.5523 25.8638 38.6379 25.8055L42.6585 21.6917C42.7441 21.6042 42.8581 21.6042 42.9152 21.6917L46.9358 25.8055C47.0213 25.8638 47.0213 25.9805 46.9358 26.068Z" fill="#9FC7FF"/>
<path d="M27.5456 36.4252L25.0933 38.9343C25.0077 39.0218 24.8937 39.0218 24.8366 38.9343L22.3843 36.4252C22.2988 36.3377 22.2988 36.221 22.3843 36.1627L24.8366 33.6536C24.9222 33.5661 25.0363 33.5661 25.0933 33.6536L27.5456 36.1627C27.6026 36.221 27.6026 36.3377 27.5456 36.4252Z" fill="#9FC7FF"/>
<path d="M31.4807 23.384C29.7983 24.2301 27.1749 23.4715 24.637 21.5459C15.7974 9.52573 3.67845 6.69573 0 5.99552C8.18383 -1.99851 20.4738 -1.99851 28.5721 5.99552C30.7108 8.09614 32.3931 10.6052 33.5908 13.3185C34.9025 18.22 33.6193 22.2753 31.4807 23.384Z" fill="url(#paint0_linear_277_2)"/>
<path d="M32.165 38.0883C31.1955 34.0038 29.2565 27.9645 25.0077 22.0419C24.8937 21.8668 24.7511 21.6918 24.637 21.5167C27.1464 23.4423 29.7983 24.2009 31.4806 23.3548C33.6193 22.2753 34.9025 18.1908 33.6193 13.2893C37.0696 21.0499 36.7274 30.5902 32.165 38.0883Z" fill="#9FC7FF"/>
<path d="M60.308 36L62.394 26.2H63.822L65.628 33.172L70.374 26.2H71.9L69.814 36H68.834L70.64 27.446L65.208 35.3L63.122 27.418L61.302 36H60.308ZM74.1024 36.098C73.3837 36.098 72.805 35.9207 72.3664 35.566C71.9277 35.2113 71.7084 34.7353 71.7084 34.138C71.7084 33.6807 71.825 33.284 72.0584 32.948C72.2917 32.6027 72.623 32.3367 73.0524 32.15C73.4817 31.954 73.9857 31.856 74.5644 31.856C74.975 31.856 75.3717 31.912 75.7544 32.024C76.1464 32.1267 76.4964 32.2713 76.8044 32.458L76.9864 31.632C77.117 30.9973 77.0424 30.5213 76.7624 30.204C76.4917 29.8867 76.011 29.728 75.3204 29.728C75.0217 29.728 74.7044 29.7747 74.3684 29.868C74.0417 29.952 73.659 30.0873 73.2204 30.274L72.9404 29.448C73.4257 29.2427 73.8784 29.0933 74.2984 29C74.7184 28.9067 75.115 28.86 75.4884 28.86C76.123 28.86 76.6457 28.9673 77.0564 29.182C77.467 29.3967 77.7517 29.7093 77.9104 30.12C78.0784 30.5213 78.1017 31.002 77.9804 31.562L77.0424 36H76.0484L76.1744 35.426C75.857 35.65 75.5257 35.818 75.1804 35.93C74.8444 36.042 74.485 36.098 74.1024 36.098ZM74.3684 35.3C74.7324 35.3 75.0777 35.244 75.4044 35.132C75.7404 35.0107 76.0577 34.8287 76.3564 34.586L76.6364 33.27C76.1044 32.8313 75.409 32.612 74.5504 32.612C74.009 32.612 73.561 32.7473 73.2064 33.018C72.8517 33.2887 72.6744 33.6293 72.6744 34.04C72.6744 34.432 72.8237 34.74 73.1224 34.964C73.421 35.188 73.8364 35.3 74.3684 35.3ZM78.7064 36L80.1904 28.986H81.1984L81.0444 29.686C81.6697 29.1353 82.3791 28.86 83.1724 28.86C83.7231 28.86 84.1851 28.986 84.5584 29.238C84.9411 29.49 85.2117 29.8353 85.3704 30.274C85.5291 30.7127 85.5477 31.212 85.4264 31.772L84.5304 36H83.5224L84.3904 31.898C84.5304 31.254 84.4557 30.736 84.1664 30.344C83.8864 29.952 83.4431 29.756 82.8364 29.756C82.4537 29.756 82.0897 29.84 81.7444 30.008C81.4084 30.176 81.1051 30.4187 80.8344 30.736L79.7144 36H78.7064ZM88.9182 36.126C88.2649 36.126 87.7889 35.972 87.4902 35.664C87.2009 35.3467 87.1169 34.9033 87.2382 34.334L88.1762 29.868H86.6922L86.8882 28.986H88.3582L88.7362 27.208L89.8142 26.942L89.3802 28.986H91.4242L91.2282 29.868H89.1842L88.2742 34.11C88.1902 34.5113 88.2275 34.8007 88.3862 34.978C88.5449 35.146 88.8529 35.23 89.3102 35.23C89.4409 35.23 89.5669 35.2207 89.6882 35.202C89.8095 35.174 89.9542 35.1367 90.1222 35.09L89.9402 36C89.7909 36.0373 89.6229 36.0653 89.4362 36.084C89.2589 36.112 89.0862 36.126 88.9182 36.126ZM93.5301 36.098C92.8114 36.098 92.2328 35.9207 91.7941 35.566C91.3554 35.2113 91.1361 34.7353 91.1361 34.138C91.1361 33.6807 91.2528 33.284 91.4861 32.948C91.7194 32.6027 92.0508 32.3367 92.4801 32.15C92.9094 31.954 93.4134 31.856 93.9921 31.856C94.4028 31.856 94.7994 31.912 95.1821 32.024C95.5741 32.1267 95.9241 32.2713 96.2321 32.458L96.4141 31.632C96.5448 30.9973 96.4701 30.5213 96.1901 30.204C95.9194 29.8867 95.4388 29.728 94.7481 29.728C94.4494 29.728 94.1321 29.7747 93.7961 29.868C93.4694 29.952 93.0868 30.0873 92.6481 30.274L92.3681 29.448C92.8534 29.2427 93.3061 29.0933 93.7261 29C94.1461 28.9067 94.5428 28.86 94.9161 28.86C95.5508 28.86 96.0734 28.9673 96.4841 29.182C96.8948 29.3967 97.1794 29.7093 97.3381 30.12C97.5061 30.5213 97.5294 31.002 97.4081 31.562L96.4701 36H95.4761L95.6021 35.426C95.2848 35.65 94.9534 35.818 94.6081 35.93C94.2721 36.042 93.9128 36.098 93.5301 36.098ZM93.7961 35.3C94.1601 35.3 94.5054 35.244 94.8321 35.132C95.1681 35.0107 95.4854 34.8287 95.7841 34.586L96.0641 33.27C95.5321 32.8313 94.8368 32.612 93.9781 32.612C93.4368 32.612 92.9888 32.7473 92.6341 33.018C92.2794 33.2887 92.1021 33.6293 92.1021 34.04C92.1021 34.432 92.2514 34.74 92.5501 34.964C92.8488 35.188 93.2641 35.3 93.7961 35.3Z" fill="#072138"/>
<path d="M60 19V4H64.9274C66.0263 4 67.0189 4.19643 67.9406 4.57143C68.8623 4.94643 69.6421 5.48214 70.2979 6.16071C70.9537 6.83929 71.4678 7.625 71.8223 8.53571C72.1767 9.44643 72.3717 10.4286 72.3717 11.5C72.3717 12.5714 72.1945 13.5536 71.8223 14.4643C71.4678 15.375 70.9537 16.1607 70.2979 16.8393C69.6421 17.5179 68.8445 18.0536 67.9406 18.4286C67.0189 18.8036 66.0263 19 64.9274 19H60ZM61.6307 17.5179H65.0338C66.115 17.5179 67.0721 17.25 67.9229 16.7321C68.7736 16.1964 69.4472 15.4821 69.9612 14.5714C70.4575 13.6607 70.7233 12.6429 70.7233 11.5C70.7233 10.3571 70.4752 9.33929 69.9612 8.42857C69.4649 7.51786 68.7736 6.80357 67.9229 6.26786C67.0721 5.73214 66.115 5.48214 65.0338 5.48214H61.6307V17.5179Z" fill="black"/>
<path d="M75.4558 19V4H77.0865V19H75.4558Z" fill="black"/>
<path d="M84.9916 19L79.1602 4H80.8972L86.0019 17.4107L91.1243 4H92.8081L86.9413 19H84.9916Z" fill="black"/>
<path d="M94.8819 19V7.75H96.5125V19H94.8819Z" fill="black"/>
<path d="M100.27 19V7.57143H101.972L110.692 16.4286L110.657 4H112.216V19H110.728L101.794 9.85714L101.83 19H100.27Z" fill="black"/>
<path d="M115.761 19V4H121.823C122.869 4 123.844 4.19643 124.748 4.57143C125.652 4.96429 126.449 5.5 127.123 6.17857C127.814 6.85714 128.346 7.66071 128.736 8.57143C129.126 9.48214 129.303 10.4464 129.303 11.5C129.303 12.5357 129.108 13.5179 128.736 14.4286C128.346 15.3393 127.814 16.125 127.123 16.8214C126.432 17.5 125.634 18.0357 124.748 18.4286C123.844 18.8214 122.869 19 121.823 19H115.761ZM119.413 15.8393H121.823C122.514 15.8393 123.135 15.6429 123.702 15.2679C124.269 14.8929 124.695 14.3571 125.031 13.6964C125.368 13.0357 125.528 12.3036 125.528 11.5C125.528 10.6786 125.368 9.94643 125.031 9.28571C124.695 8.625 124.251 8.10714 123.702 7.71429C123.152 7.32143 122.532 7.14286 121.823 7.14286H119.413V15.8393Z" fill="black"/>
<path d="M129.569 19L135.382 4H139.548L145.273 19H141.32L140.079 15.4286H134.638L133.379 19H129.569ZM135.631 12.5714H139.105L137.385 7.60714L135.631 12.5714Z" fill="black"/>
<path d="M147.984 19V7.14286H143.199V4H156.421V7.14286H151.636V19H147.984Z" fill="black"/>
<path d="M154.365 19L160.179 4H164.344L170.069 19H166.099L164.858 15.4286H159.417L158.158 19H154.365ZM160.427 12.5714H163.901L162.182 7.60714L160.427 12.5714Z" fill="black"/>
<defs>
<linearGradient id="paint0_linear_277_2" x1="15.5936" y1="7.39698" x2="39.6477" y2="32.1655" gradientUnits="userSpaceOnUse">
<stop stop-color="#6A78FF"/>
<stop offset="0.9766" stop-color="#A8A9FF"/>
<stop offset="1" stop-color="#AAAAFF"/>
</linearGradient>
</defs>
</svg>
