<svg version="1.1" xmlns="http://www.w3.org/2000/svg" xmlns:xlink="http://www.w3.org/1999/xlink" x="0px" y="0px" width="259.6px"
	 height="166.6px" viewBox="0 0 259.6 166.6" style="enable-background:new 0 0 259.6 166.6;" xml:space="preserve">
<style type="text/css">
	.st0{fill:#6155EC;}
</style>
<defs>
</defs>
<path class="st0" d="M223.1,102c4.2-4.3,9.5-5.4,14.8-6.5c4-0.8,8.1-0.9,12.1-0.8c1.7,0,3.4,0,5.3-2.3c-8,0.2-13.4-5.7-20.2-7.8
	c-1.1-0.4-2.3-0.6-3.5-0.4c-6.4,0.9-12.5,3.2-18.1,6.8c-1.3,0.8-2.4,1.9-3.6,3c-0.6,0.6-1.3,1.5-0.6,2.4c0.6,0.9,1.4,0.2,2-0.2
	c2.7-1.5,5.4-2.9,8.3-3.7c1.6-0.4,3.2-0.4,4.7,0.5c2.2,1.3,2.3,3.4,0.1,4.8c-2.4,1.5-4.9,2.9-7.9,4.6c3.2,1.1,6,2,8.8,3
	c5.1,1.9,9.4,5.1,12.2,10.3c1.3,2.4,2.2,5.1,0.3,7.6c-1.9,2.5-4.6,2.4-6.8,1.1c-8.3-4.9-17-3.9-25.7-2.6c-8.7,1.2-17.3,3.2-25.8,5.2
	c-0.8,0.2-1.6,0.3-2.5,0.1c8.4-6.6,17.7-10.5,28.6-10.4c-1.3-2.3-2.8-2.6-4.1-3.1c-7.6-2.7-15.4-2.3-23.2-1.1
	c-34.7,5.3-67.5-0.9-97.8-20.6c-16.1-10.4-29.1-24.3-37.5-43c-0.5-1-0.8-2.4-2.2-2.2c-1.1,0.2-1.2,1.5-1.4,2.5
	c-2.3,14.4-3.2,28.8,0.4,43.1c4.6,18.3,15.8,29.8,31.5,36.4c9.4,3.9,19.1,5.7,29.1,6.5c19.8,1.7,39.2-1.1,58.6-4.5
	c0.9-0.2,1.8-0.7,3.1,0.1c-9.5,2.7-18.8,4.4-28.1,6c-10.8,1.9-21.6,3.1-32.5,3.3c-13.6,0.2-27.1-1-39.9-6.8
	c-1.9-0.8-3.5-0.6-5.2,0.3c-18.1,9.3-35.7,19.7-52.9,31c-1.2,0.8-2.4,1.5-3.7,2c0.5-1.9,1.9-2.9,3.1-4
	c13.7-12.6,28.1-24.2,43.5-34.3c3.2-2.1,3.2-2.1,0.4-4.9c-9.7-9.7-13.9-22.1-15.2-36c-1.5-16.1,1-31.7,4.6-47.2
	c0.2-0.8,0.5-1.6,0.8-2.3c1.8-4.2,4.2-4.6,6.7-0.9c3.1,4.5,5.3,9.7,8.5,14.2c20.8,29,47.2,48.1,80.5,54.7c0.4,0.1,0.8,0.1,1.3,0.2
	c0.6,0,1.3,0.1,1.9,0c-3.9-1-7.9-1.8-11.7-3.2c-4-1.4-7.9-3-11.6-5.1c-0.6-0.3-1.1-0.6-1.7-0.9c-2.3-1.2-1.9-2.3,0.1-3.5
	c14.3-9.1,29.3-15.9,45.6-19.1c15.7-3.1,31.5-2.7,47.2-0.3c0.9,0.1,1.9,0.3,2.8,0.2c-10.9-3.2-22.1-3.6-33.2-3.7
	c-0.3-1.2,0.4-1.7,0.8-2.3c8.8-12.2,9.4-23.6,1.7-36.8c-5.4-9.3-12.6-16.9-20.3-24c-0.2-0.2-0.5-0.4-0.8-0.7
	c-1.3-1.3-3.3-2.5-2.5-4.8c0.9-2.4,3.2-1.9,5.1-1.6c27.5,4.7,45.8,21.9,55.9,50.3c2.7,7.5,4.7,15.2,6,23.1c0.4,2.5,1.5,3.6,3.6,4.1
	c8.4,1.9,16.7,3.9,24.1,9c2.6,1.8,5.6,2.6,8.9,2.1c2.7-0.5,3.9,1.4,3,4.3c-1.1,3.6-4.8,5.6-9.6,5.1c-5.7-0.5-11.3-0.7-16.9,0.4
	C229.4,99.3,226.4,101,223.1,102z"/>
</svg>
