<svg version="1.1" xmlns="http://www.w3.org/2000/svg" xmlns:xlink="http://www.w3.org/1999/xlink" x="0px" y="0px" width="264.1px"
	 height="207.7px" viewBox="0 0 264.1 207.7" style="enable-background:new 0 0 264.1 207.7;" xml:space="preserve">
<style type="text/css">
	.st0{fill:#6155EC;}
</style>
<defs>
</defs>
<g>
	<g>
		<path class="st0" d="M172.8,0c24-0.1,43.7,18.3,44.2,42.4c0.3,15-6.2,27.2-19,35.5c-14.9,9.6-31,12.7-48.3,7.8
			c-3.8-1.1-4-0.8-3.5,3.2c1.1,8.1,4.1,15.2,10.2,20.8c4.5,4.1,9.8,6.1,15.7,6.3c6.5,0.2,10.5-3.5,13.2-9
			c3.2-6.4,6.3-12.9,10.8-18.7c11.4-14.8,29.7-20.8,46.6-15.2c14.7,4.8,22.7,17,21.3,32.3c-1.1,11.7-10.1,19.6-21.2,18.6
			c-5.1-0.4-8.8-3.4-9.6-7.5c-0.2-1-0.4-1.9,0.5-2.6c1-0.8,1.9-0.5,3,0c3.2,1.5,5.9,0.4,7.4-2.9c0.6-1.5,2.3-2.1,2.6-4
			c1.1-6.2-1.2-10.9-5.5-15c-0.5-0.5-1-0.5-1.6-0.4c-6.2,0.5-11.7,2.1-15,8.1c-0.9,1.6-2,3.2-4.2,3.5c-0.2,0-0.6,0.1-0.6,0.2
			c-0.6,3.6-2.8,6.5-4.2,9.7c-0.2,0.5,0.1,1.2,0.1,1.7c-0.2,1.4-2.5,3,0.5,4.2c1.4,0.5,1.8,2.8,3.9,2.5c0.5-0.1,1.3,0.2,1.6,0.6
			c2.9,4.1,7.9,6.9,8,12.8c0,0.9,0.5,1.5,1,2.2c1.1,1.5,1.4,3.2,0.6,5c-0.1,0.2-0.3,0.5-0.2,0.7c2.1,4.7-0.9,8-2.9,11.7
			c-2.9,5.5-6,10.4-11.7,13.3c-1.1,0.6-2.2,1.4-3.1,2.3c-1.8,1.9-3.7,3.2-6.5,2.6c-0.8-0.2-1.9,0.2-2.7,0.6
			c-4.3,2.6-9.3,2.5-13.7,2.4c-4.4-0.1-9.6,0.4-13.7-2.9c-1.1-0.9-2.8-1.3-4.2-1.8c-2.7-0.9-6.1,1.8-5.4,4.6c0.5,2,0.3,3.8-1.3,5.2
			c-0.9,0.8-1.1,1.6-1,2.8c0.2,2.5-0.5,4.8-3.2,5.7c-1.4,0.5-1.1,1.5-1.3,2.5c-0.4,2.3-1.5,4.3-4.4,4.2c-1.5-0.1-2,0.7-2.5,1.9
			c-0.9,2.3-3,2.9-5.3,4c-3.8,1.7-7.5,3.4-11.7,4.4c-2.4,0.5-4.5,2.3-7.1,0.9c-0.8-0.4-1.5-0.5-2.4-0.1c-2.9,1.3-5.7,1.4-8.3-0.7
			c-0.9-0.7-2-0.6-3.1-0.4c-2,0.5-3.7,0.5-5.1-1.2c-0.7-0.8-1.6-0.9-2.6-0.7c-2.1,0.5-3.7,0-4.8-1.9c-0.8-1.4-2.1-1.6-3.6-1.6
			c-2.5,0-3.9-1.7-5.8-3.2c-3.5-2.8-6.4-6.2-10.1-8.7c-2-1.3-3.9-2.3-3.6-5c0.2-1.6-0.4-2.4-1.7-3.1c-2.3-1.3-3.9-3.1-3-6
			c0.1-0.3,0.2-0.9,0-1c-2.7-2.5-2.9-6.1-4.2-9.3c-0.7-1.8-1.3-3.2-0.6-4.9c0.3-0.8,0.7-1.6,0.6-2.4c-0.2-2.7-0.3-5.9-3.4-6.8
			c-2.8-0.8-4.5,1.7-5.7,3.9c-2.4,4.5-4.4,9.1-6.8,13.6c-3.7,7-8.9,12.1-17.4,12.8c-3.8,0.3-9.7-2.2-11.4-5.6
			c-1.1-2.2-2.3-4.4-3.8-6.3c-0.7-0.9-1.4-2.2-1.3-3.2c0.3-3.5-1.6-6.7-1.8-9.7c-0.2-3.8-1.3-7.8-0.5-11.4c0.7-3.2,0.9-6.5,2.1-9.6
			c0.9-2.4-0.1-4.1-2.5-4.4c-3.5-0.4-6.5-1.2-7.8-5c-0.4-1.1-1.8-0.9-2.7-1.5c-2.2-1.3-3.9-2.9-2.9-5.7c0.5-1.5-0.3-2-1.2-2.8
			c-2.1-1.8-2.9-4-1.4-6.6c1-1.8,0.5-3-0.9-4.3c-1.9-1.8-2.5-4.1-0.3-6.1c1.4-1.3,1.1-2.2,0.2-3.6c-1.7-2.8-2.2-5.5,1.1-7.6
			c1.4-0.9,0.5-1.7,0-2.7c-1.6-3.2-0.9-5.5,2.2-6.9c1.5-0.7,1.9-1.4,1.4-3c-1-3.1-0.1-5.4,3.3-6.2c1.3-0.3,1.7-0.9,1.7-2.2
			c0-1.6,1-3,2.2-3.4c3-1,5-3.7,7.8-4.5c6.1-1.9,12.3-4.3,19-3.4c2,0.3,4,0.4,5.9,0.9c6,1.5,7.4,0.8,10.3-5c0.1-0.1,0.1-0.2,0.2-0.3
			c0.7-1.2,2-2.5,3-2.3c3.7,0.9,5.8-3.6,9.4-2.4c1.1,0.4,2.2,1.1,2.4,2.4c0.2,1.5-1.3,1.4-2.2,1.7c-2.3,0.9-3.5,2.7-4.2,4.9
			c-0.8,2.6-1.3,5.3-2.1,7.9c-1.7,5.6-6.5,7.6-11.7,5c-0.2-0.1-0.4-0.2-0.6-0.3c-9.8-5.1-16.8-2.1-20.2,8.6
			c-2.5,8.1,0.7,18,7.6,23.1c6.6,4.9,16.6,5,23.6,0c3.3-2.3,5.4-5.7,6.6-9.4c2.9-8.8,6.9-16.7,14-22.9c2.7-2.3,3.8-5.6,3-9.3
			c-1.8-9,1.2-15.2,9.4-19.5c2.1-1.1,4.3-2.5,6.5-2.6c7.5-0.4,12.3-5.2,17.4-9.7c9.9-8.6,20.4-16.4,32.9-21.2
			C158.3,1.7,165.4-0.1,172.8,0z M131.8,146c-7.1-0.4-11.7,2.2-14.4,7.7c-2.8,5.7-1.3,11.2,2.2,15.9c6.1,8.2,16.3,9.2,24.2,2.8
			c2.4-1.9,3.2-4.4,2.2-7.2c-0.7-1.8-2.1-3-4.1-2.6c-1.9,0.4-3.2,1.4-2.6,3.8c0.3,1.1,0.1,2.2-1.3,2.4c-1.2,0.2-2.1-0.4-2.6-1.4
			c-0.5-0.9-0.6-2-1.2-2.9c-3.1-4.3-2.8-10.4,0.7-14.6c0.7-0.8,1.6-1.6,1.1-2.8c-0.5-1.2-1.7-1.2-2.7-1.2
			C132.5,146,131.7,146,131.8,146z M179.8,146.6c6.1,5.9,16.4,8.2,23.6,5.2c5.1-2.1,8.1-8.6,6.1-13.8c-0.7-1.8-1.6-3.6-3.7-4
			c-0.5,0.8-0.3,1.2,0,1.6c1.7,2.4,3.3,5.2,1.2,7.7c-2,2.5-4.8,4.3-8.7,3.1c-3.4-1.1-7-4.1-10.8-0.5c-0.4,0.4-1.6,0.3-2,0
			C183.3,143.8,181.6,145.3,179.8,146.6z"/>
	</g>
</g>
</svg>
