<svg version="1.1" xmlns="http://www.w3.org/2000/svg" xmlns:xlink="http://www.w3.org/1999/xlink" x="0px" y="0px" width="22px"
	 height="22px" viewBox="0 0 22 22" style="enable-background:new 0 0 22 22;" xml:space="preserve">
<style type="text/css">
	.st0{fill:#4F46E5;}
	.st1{fill:#EEF2FF;}
</style>
<defs>
</defs>
<polyline points="0,4.6 22,4.6 10.9,22 0.2,4.8 "/>
<polyline class="st0" points="0,2.5 22,2.5 10.9,20 0.2,2.7 "/>
<g>
	<path d="M4.7,14.7c-0.8,0-1.6-0.2-2.2-0.5S1.4,13.6,1,13l1.9-1.9c0.2,0.3,0.5,0.5,0.8,0.7c0.3,0.2,0.6,0.2,1,0.2
		c0.4,0,0.7-0.1,0.9-0.2c0.3-0.1,0.5-0.4,0.7-0.7c0.2-0.3,0.2-0.7,0.2-1.1V1.4h2.9v8.5c0,1-0.2,1.8-0.6,2.5
		c-0.4,0.7-0.9,1.3-1.7,1.7C6.6,14.5,5.7,14.7,4.7,14.7z"/>
	<path d="M11,14.5V1.4h2.9v13.1H11z M13.2,14.5v-2.3h3.1c0.6,0,1-0.2,1.3-0.5c0.3-0.3,0.5-0.7,0.5-1.2c0-0.3-0.1-0.6-0.2-0.9
		c-0.1-0.3-0.4-0.5-0.6-0.6c-0.3-0.1-0.6-0.2-1-0.2h-3.1V6.6h2.8c0.5,0,0.9-0.1,1.1-0.4c0.3-0.2,0.4-0.6,0.4-1.1
		c0-0.5-0.1-0.8-0.4-1.1c-0.3-0.2-0.7-0.4-1.1-0.4h-2.8V1.4h3.4c0.8,0,1.6,0.2,2.2,0.5c0.6,0.3,1,0.7,1.3,1.2
		c0.3,0.5,0.5,1.1,0.5,1.7c0,0.8-0.3,1.5-0.8,2.1s-1.3,0.9-2.3,1.1l0.1-1c1.1,0.2,2,0.6,2.6,1.3C20.7,9,21,9.8,21,10.7
		c0,0.7-0.2,1.4-0.5,1.9c-0.4,0.6-0.9,1-1.5,1.4c-0.7,0.3-1.5,0.5-2.4,0.5H13.2z"/>
</g>
<g>
	<g>
		<path class="st1" d="M4.7,13.3c-0.8,0-1.6-0.2-2.2-0.5S1.4,12.1,1,11.6l1.9-1.9c0.2,0.3,0.5,0.5,0.8,0.7c0.3,0.2,0.6,0.2,1,0.2
			c0.4,0,0.7-0.1,0.9-0.2C6,10.3,6.2,10,6.4,9.7c0.2-0.3,0.2-0.7,0.2-1.1V0h2.9v8.5c0,1-0.2,1.8-0.6,2.5c-0.4,0.7-0.9,1.3-1.7,1.7
			C6.6,13.1,5.7,13.3,4.7,13.3z"/>
	</g>
	<g>
		<path class="st1" d="M11,13.1V0h2.9v13.1H11z M13.2,13.1v-2.3h3.1c0.6,0,1-0.2,1.3-0.5c0.3-0.3,0.5-0.7,0.5-1.2
			c0-0.3-0.1-0.6-0.2-0.9c-0.1-0.3-0.4-0.5-0.6-0.6c-0.3-0.1-0.6-0.2-1-0.2h-3.1V5.2h2.8c0.5,0,0.9-0.1,1.1-0.4
			c0.3-0.2,0.4-0.6,0.4-1.1c0-0.5-0.1-0.8-0.4-1.1c-0.3-0.2-0.7-0.4-1.1-0.4h-2.8V0h3.4c0.8,0,1.6,0.2,2.2,0.5
			c0.6,0.3,1,0.7,1.3,1.2c0.3,0.5,0.5,1.1,0.5,1.7c0,0.8-0.3,1.5-0.8,2.1s-1.3,0.9-2.3,1.1l0.1-1c1.1,0.2,2,0.6,2.6,1.3
			S21,8.3,21,9.3c0,0.7-0.2,1.4-0.5,1.9c-0.4,0.6-0.9,1-1.5,1.4c-0.7,0.3-1.5,0.5-2.4,0.5H13.2z"/>
	</g>
</g>
</svg>
