<svg width="24" height="24" viewBox="0 0 24 24" fill="none" xmlns="http://www.w3.org/2000/svg">
<path d="M6.12999 10.6699C6.54999 10.9099 6.69999 11.4399 6.45999 11.8599L3.63999 16.7799C3.39999 17.1999 2.85999 17.3499 2.43999 17.1099C2.33987 17.0538 2.25186 16.9784 2.18102 16.888C2.11018 16.7977 2.05792 16.6943 2.02724 16.5836C1.99657 16.473 1.98809 16.3574 2.00229 16.2435C2.01649 16.1296 2.05309 16.0196 2.10999 15.9199L4.92999 10.9999C5.16999 10.5799 5.70999 10.4299 6.12999 10.6699ZM12.21 6.89994C12.63 7.13994 12.78 7.66994 12.54 8.08994L9.71999 13.0099C9.47999 13.4299 8.93999 13.5799 8.51999 13.3399C8.41987 13.2838 8.33186 13.2084 8.26102 13.118C8.19018 13.0277 8.13792 12.9243 8.10724 12.8136C8.07657 12.703 8.06809 12.5874 8.08229 12.4735C8.09649 12.3596 8.13309 12.2496 8.18999 12.1499L11.01 7.22994C11.25 6.80994 11.79 6.65994 12.21 6.89994ZM21.56 6.89994C21.98 7.13994 22.13 7.66994 21.89 8.08994L19.07 13.0099C18.83 13.4299 18.29 13.5799 17.87 13.3399C17.7699 13.2838 17.6819 13.2084 17.611 13.118C17.5402 13.0277 17.4879 12.9243 17.4572 12.8136C17.4266 12.703 17.4181 12.5874 17.4323 12.4735C17.4465 12.3596 17.4831 12.2496 17.54 12.1499L20.36 7.22994C20.6 6.80994 21.14 6.65994 21.56 6.89994ZM15.48 10.6699C15.9 10.9099 16.05 11.4399 15.81 11.8599L12.99 16.7799C12.75 17.1999 12.21 17.3499 11.79 17.1099C11.6899 17.0538 11.6019 16.9784 11.531 16.888C11.4602 16.7977 11.4079 16.6943 11.3772 16.5836C11.3466 16.473 11.3381 16.3574 11.3523 16.2435C11.3665 16.1296 11.4031 16.0196 11.46 15.9199L14.28 10.9999C14.52 10.5799 15.06 10.4299 15.48 10.6699Z" fill="#C5F74F"/>
</svg>
