<svg width="32" height="32" viewBox="0 0 32 32" fill="none" xmlns="http://www.w3.org/2000/svg">
<rect width="32" height="32" rx="16" fill="#635BFF"/>
<path d="M17.3832 14.1007C15.8615 13.5626 15.0323 13.1501 15.0323 12.4944C15.0323 11.9403 15.5105 11.6241 16.3641 11.6241C17.9242 11.6241 19.5264 12.196 20.6299 12.7109L21.2532 9.04855C20.3781 8.65122 18.5887 8 16.1151 8C14.365 8 12.9097 8.43563 11.8699 9.24811C10.789 10.098 10.2255 11.3274 10.2255 12.8116C10.2255 15.5047 11.9541 16.653 14.7618 17.6249C16.5737 18.2379 17.1755 18.6744 17.1755 19.3479C17.1755 20 16.5868 20.3768 15.5264 20.3768C14.2134 20.3768 12.0487 19.763 10.6308 18.971L10 22.6744C11.2204 23.3265 13.4675 24 15.7997 24C17.649 24 19.1914 23.584 20.2312 22.792C21.3963 21.9216 22 20.6343 22 18.971C22 16.2174 20.2321 15.069 17.3814 14.0998H17.3832V14.1007Z" fill="white"/>
</svg>
